<svg width="440" height="440" viewBox="0 0 440 440" fill="none" xmlns="http://www.w3.org/2000/svg">
<rect width="440" height="440" rx="220" fill="#E7E5DB"/>
<rect x="6" y="6" width="428" height="428" rx="214" stroke="#640F07" stroke-opacity="0.75" stroke-width="12"/>
<path d="M188.789 299.086C184.883 301.898 179.258 303.305 171.914 303.305C164.57 303.305 160.898 300.219 160.898 294.047C160.898 292.719 161.445 290.414 162.539 287.133C163.633 283.773 164.609 280.141 165.469 276.234C166.406 272.25 166.875 255.375 166.875 225.609C166.875 195.844 166.484 178.422 165.703 173.344C164.922 168.188 163.984 163.852 162.891 160.336C161.797 156.82 161.25 154.008 161.25 151.898C161.25 145.961 166.406 142.992 176.719 142.992C181.641 142.992 186.016 144.164 189.844 146.508C193.75 148.852 195.703 152.133 195.703 156.352C195.703 158.461 195.43 161.156 194.883 164.438L193.945 170.062C193.711 172.641 193.594 178.5 193.594 187.641C193.594 196.703 194.102 202.367 195.117 204.633C196.133 206.898 198.008 208.031 200.742 208.031C203.477 208.031 212.617 198.656 228.164 179.906C233.945 172.953 237.617 168.266 239.18 165.844C240.742 163.344 242.578 160.18 244.688 156.352C246.875 152.523 248.516 150.023 249.609 148.852C252.891 145.258 258.242 143.461 265.664 143.461C273.086 143.461 276.797 145.688 276.797 150.141C276.797 150.844 268.984 160.492 253.359 179.086C237.734 197.602 229.922 209.359 229.922 214.359C229.922 217.016 236.484 227.875 249.609 246.938C262.734 266 272.148 279.242 277.852 286.664C283.555 294.008 286.406 298.422 286.406 299.906C286.406 303.031 283.125 304.594 276.562 304.594H272.578C265.625 304.594 259.883 302.289 255.352 297.68C254.727 297.055 249.922 289.672 240.938 275.531C231.953 261.312 225.898 252.25 222.773 248.344C216.133 239.984 210.43 235.805 205.664 235.805C201.914 235.805 198.867 239.281 196.523 246.234C194.258 253.109 193.125 261.82 193.125 272.367L194.766 286.547C194.766 292.016 192.773 296.195 188.789 299.086Z" fill="#640F07"/>
</svg>
